# File created by Blade
# Date/Time:  Thu Jan 22 16:10:14 2015
# Frame Rate: 120.000 fps
#------------------------------------------------------
:FULLY-SPECIFIED
:DEGREES
2722
root 1.119426 37.470186 0.871480 -2.308586 -4.026708 3.094828
RightUpLeg 8.879467 -3.215932 -5.871593
RightLeg -5.637950 -0.000000 0.000000
RightFoot -10.400737 -14.092347 20.537051
RightToeBase 14.159463 -0.000000 -0.000000
LeftUpLeg 2.019490 -0.867246 1.914929
LeftLeg 9.314636 -0.000000 -0.000000
LeftFoot -10.982437 7.537845 -18.415403
LeftToeBase 2.376791 -0.000000 -0.000000
Spine 14.714680 -5.738986 -2.345039
RightShoulder -2.539675 -10.984896 -32.186386
RightArm 11.479957 29.145605 34.892928
RightForeArm 9.894528 -0.000000 21.434645
RightHand 2.856812 -0.000000 -6.587148
RightHandThumb1 -24.326973 -0.000000 -32.862282
LeftShoulder -25.937143 30.175109 16.858104
LeftArm 47.782977 -46.814680 -59.036081
LeftForeArm 28.282175 -0.000000 7.121823
LeftHand -22.756959 -0.000000 -0.190909
LeftHandThumb1 -26.253704 0.000000 33.147579
Head -17.675713 14.837709 -1.996002
2723
root 1.127709 37.450992 0.882435 -2.353743 -3.940835 2.858284
RightUpLeg 8.990492 -3.173126 -5.639147
RightLeg -5.664058 -0.000000 0.000000
RightFoot -10.444592 -14.177699 20.483961
RightToeBase 14.156021 -0.000000 -0.000000
LeftUpLeg 2.511411 -1.289355 2.079622
LeftLeg 8.379701 -0.000000 -0.000000
LeftFoot -11.039254 8.888614 -18.730442
LeftToeBase 4.273224 -0.000000 -0.000000
Spine 14.493301 -5.841195 -2.146656
RightShoulder -2.583350 -10.955566 -32.099893
RightArm 11.461048 29.091353 34.815193
RightForeArm 9.552211 -0.000000 21.509225
RightHand 2.755319 -0.000000 -6.386037
RightHandThumb1 -24.326973 -0.000000 -32.862282
LeftShoulder -25.931780 30.268322 16.939040
LeftArm 47.839390 -46.877777 -59.016595
LeftForeArm 28.188457 -0.000000 6.853655
LeftHand -22.659757 -0.000000 -0.206450
LeftHandThumb1 -26.253704 0.000000 33.147579
Head -17.167206 14.892958 -1.828611
2724
root 1.134679 37.435120 0.892309 -2.387098 -3.873471 2.631257
RightUpLeg 9.064800 -2.965348 -5.393412
RightLeg -5.655421 -0.000000 0.000000
RightFoot -10.551830 -14.412021 20.496573
RightToeBase 14.223590 -0.000000 -0.000000
LeftUpLeg 2.963226 -1.660510 2.273368
LeftLeg 7.474841 -0.000000 -0.000000
LeftFoot -10.985506 10.070015 -19.245169
LeftToeBase 6.107108 -0.000000 -0.000000
Spine 14.259498 -5.940311 -1.987178
RightShoulder -2.574352 -10.911554 -31.990867
RightArm 11.413533 29.081487 34.755212
RightForeArm 9.339976 0.000000 21.546955
RightHand 2.689454 0.000000 -6.306287
RightHandThumb1 -24.326973 -0.000000 -32.862282
LeftShoulder -25.864859 30.272104 17.128302
LeftArm 47.628842 -46.862627 -58.850174
LeftForeArm 28.108900 -0.000000 6.658025
LeftHand -22.641604 -0.000000 -0.191078
LeftHandThumb1 -26.253704 0.000000 33.147579
Head -16.665226 15.041767 -1.602712
2725
root 1.150110 37.423863 0.906141 -2.457570 -3.820757 2.486772
RightUpLeg 9.159147 -2.765761 -5.242334
RightLeg -5.631885 -0.000000 0.000000
RightFoot -10.660312 -14.688832 20.519295
RightToeBase 14.299315 -0.000000 -0.000000
LeftUpLeg 3.420623 -1.906439 2.386914
LeftLeg 6.643964 -0.000000 -0.000000
LeftFoot -10.740388 10.653600 -19.453068
LeftToeBase 8.147163 -0.000000 -0.000000
Spine 14.076126 -5.950891 -1.925702
RightShoulder -2.647940 -10.918123 -31.820846
RightArm 11.389795 29.016828 34.666042
RightForeArm 9.164785 -0.000000 21.549274
RightHand 2.740477 -0.000000 -6.288628
RightHandThumb1 -24.326973 -0.000000 -32.862282
LeftShoulder -25.816494 30.322746 17.243142
LeftArm 47.664228 -46.930107 -58.824793
LeftForeArm 28.148092 -0.000000 6.461410
LeftHand -22.643421 -0.000000 -0.099182
LeftHandThumb1 -26.253704 0.000000 33.147579
Head -16.213697 14.938311 -1.350336
2726
root 1.167910 37.418809 0.917554 -2.522014 -3.749175 2.375117
RightUpLeg 9.228930 -2.651808 -5.147164
RightLeg -5.568919 -0.000000 0.000000
RightFoot -10.741319 -14.828283 20.619868
RightToeBase 14.402096 -0.000000 -0.000000
LeftUpLeg 3.821759 -2.105077 2.474638
LeftLeg 5.954249 -0.000000 -0.000000
LeftFoot -10.469537 10.660816 -19.417766
LeftToeBase 9.547073 -0.000000 -0.000000
Spine 13.887727 -6.030834 -1.912834
RightShoulder -2.652537 -10.968009 -31.709233
RightArm 11.385491 29.098236 34.714524
RightForeArm 9.051189 0.000000 21.610701
RightHand 2.653422 -0.000000 -6.216555
RightHandThumb1 -24.326973 -0.000000 -32.862282
LeftShoulder -25.823193 30.472707 17.280469
LeftArm 47.664296 -46.961477 -58.719064
LeftForeArm 28.197695 -0.000000 6.289621
LeftHand -22.753378 -0.000000 -0.025852
LeftHandThumb1 -26.253704 0.000000 33.147579
Head -15.745364 15.124299 -1.122140
2727
root 1.195435 37.419620 0.927309 -2.606336 -3.694940 2.346853
RightUpLeg 9.285834 -2.551137 -5.146092
RightLeg -5.466401 -0.000000 0.000000
RightFoot -10.814004 -14.965644 20.680658
RightToeBase 14.468441 -0.000000 -0.000000
LeftUpLeg 4.193738 -2.265443 2.462785
LeftLeg 5.390226 -0.000000 -0.000000
LeftFoot -10.213489 10.654764 -19.270905
LeftToeBase 9.324666 -0.000000 -0.000000
Spine 13.757598 -6.055465 -2.005808
RightShoulder -2.703166 -10.990001 -31.516150
RightArm 11.381684 29.077627 34.668624
RightForeArm 9.043696 -0.000000 21.553707
RightHand 2.733008 0.000000 -6.451740
RightHandThumb1 -24.326973 -0.000000 -32.862282
LeftShoulder -25.835687 30.565476 17.357089
LeftArm 47.666737 -46.945106 -58.629113
LeftForeArm 28.344274 -0.000000 6.119018
LeftHand -22.775457 -0.000000 -0.005886
LeftHandThumb1 -26.253704 0.000000 33.147579
Head -15.391155 15.134581 -0.885047
2728
root 1.222180 37.425951 0.940144 -2.730486 -3.634917 2.339551
RightUpLeg 9.373431 -2.514999 -5.162991
RightLeg -5.344019 -0.000000 0.000000
RightFoot -10.868551 -15.102135 20.698140
RightToeBase 14.665685 -0.000000 -0.000000
LeftUpLeg 4.551867 -2.354552 2.452362
LeftLeg 4.928818 -0.000000 -0.000000
LeftFoot -10.000673 10.678975 -19.499904
LeftToeBase 9.665865 -0.000000 -0.000000
Spine 13.678515 -6.054418 -2.126739
RightShoulder -2.695366 -10.895955 -31.371500
RightArm 11.137676 29.027313 34.630356
RightForeArm 9.133489 -0.000000 21.591353
RightHand 2.794468 -0.000000 -6.530557
RightHandThumb1 -24.326973 -0.000000 -32.862282
LeftShoulder -25.828872 30.654455 17.402218
LeftArm 47.579755 -46.830138 -58.328368
LeftForeArm 28.487072 -0.000000 5.877571
LeftHand -22.678061 -0.000000 0.181754
LeftHandThumb1 -26.253704 0.000000 33.147579
Head -15.071832 15.198622 -0.634750
2729
root 1.247156 37.436739 0.954085 -2.865103 -3.558827 2.342494
RightUpLeg 9.477908 -2.578496 -5.195446
RightLeg -5.232654 -0.000000 0.000000
RightFoot -10.850534 -15.192383 20.694700
RightToeBase 14.874379 -0.000000 -0.000000
LeftUpLeg 4.904037 -2.459209 2.443424
LeftLeg 4.481817 -0.000000 -0.000000
LeftFoot -9.717157 10.694411 -19.708008
LeftToeBase 9.636649 -0.000000 -0.000000
Spine 13.622168 -6.061761 -2.285229
RightShoulder -2.736733 -10.911682 -31.227196
RightArm 11.066464 28.973192 34.681198
RightForeArm 9.445557 -0.000000 21.486705
RightHand 3.036263 -0.000000 -6.553194
RightHandThumb1 -24.326973 -0.000000 -32.862282
LeftShoulder -25.737774 30.692743 17.572021
LeftArm 47.282937 -46.698881 -58.014716
LeftForeArm 28.722003 -0.000000 5.783840
LeftHand -22.629650 -0.000000 0.196864
LeftHandThumb1 -26.253704 0.000000 33.147579
Head -14.773163 15.314007 -0.342951
2730
root 1.276529 37.448776 0.968180 -3.004093 -3.491206 2.410824
RightUpLeg 9.574043 -2.665349 -5.302669
RightLeg -5.104882 -0.000000 0.000000
RightFoot -10.822254 -15.249762 20.634513
RightToeBase 15.052140 -0.000000 -0.000000
LeftUpLeg 5.216272 -2.579411 2.360892
LeftLeg 4.121572 -0.000000 -0.000000
LeftFoot -9.421071 10.613854 -19.944675
LeftToeBase 9.651934 -0.000000 -0.000000
Spine 13.574433 -6.051388 -2.518457
RightShoulder -2.771048 -11.002922 -31.088429
RightArm 11.062230 29.115748 34.811768
RightForeArm 9.347315 -0.000000 21.356327
RightHand 3.105699 -0.000000 -6.469878
RightHandThumb1 -24.326973 -0.000000 -32.862282
LeftShoulder -25.699937 30.781570 17.668795
LeftArm 47.089946 -46.552340 -57.660167
LeftForeArm 28.955967 -0.000000 5.574941
LeftHand -22.431934 -0.000000 0.215096
LeftHandThumb1 -26.253704 0.000000 33.147579
Head -14.504506 15.259586 -0.093101
2731
root 1.308073 37.461813 0.983451 -3.150524 -3.397097 2.462992
RightUpLeg 9.617110 -3.088475 -5.428866
RightLeg -4.850534 -0.000000 0.000000
RightFoot -10.765750 -15.059567 20.463120
RightToeBase 15.218377 -0.000000 -0.000000
LeftUpLeg 5.548037 -2.700797 2.278414
LeftLeg 3.745894 -0.000000 -0.000000
LeftFoot -9.204829 10.512647 -20.321245
LeftToeBase 10.011758 -0.000000 -0.000000
Spine 13.551431 -6.051479 -2.725889
RightShoulder -2.778156 -11.002053 -30.984599
RightArm 10.890056 28.967054 34.808445
RightForeArm 9.471396 -0.000000 21.168835
RightHand 3.255063 -0.000000 -6.419358
RightHandThumb1 -24.326973 -0.000000 -32.862282
LeftShoulder -25.646238 30.785082 17.809231
LeftArm 46.764359 -46.310649 -57.208409
LeftForeArm 29.162914 -0.000000 5.419232
LeftHand -22.351643 -0.000000 0.067025
LeftHandThumb1 -26.253704 0.000000 33.147579
Head -14.277077 15.310848 0.157799
2732
root 1.341472 37.473789 0.995606 -3.258517 -3.278059 2.533568
RightUpLeg 9.682148 -3.349954 -5.558122
RightLeg -4.718887 -0.000000 0.000000
RightFoot -10.698857 -15.020104 20.338538
RightToeBase 15.382004 -0.000000 -0.000000
LeftUpLeg 5.819165 -2.779179 2.196158
LeftLeg 3.405886 -0.000000 -0.000000
LeftFoot -8.900631 10.329369 -20.470571
LeftToeBase 9.988836 -0.000000 -0.000000
Spine 13.488035 -6.090870 -2.953954
RightShoulder -2.813660 -10.968137 -30.892293
RightArm 10.830420 29.065224 34.925630
RightForeArm 9.254923 -0.000000 20.937563
RightHand 3.108955 -0.000000 -6.054455
RightHandThumb1 -24.326973 -0.000000 -32.862282
LeftShoulder -25.634487 30.788521 17.910119
LeftArm 46.433464 -46.029130 -56.685350
LeftForeArm 29.373552 -0.000000 5.222727
LeftHand -22.175563 -0.000000 -0.103521
LeftHandThumb1 -26.253704 0.000000 33.147579
Head -14.066199 15.325383 0.393179
